<svg width="16" height="16" viewBox="0 0 16 16" fill="none" xmlns="http://www.w3.org/2000/svg">
<path d="M16 8C16 12.4183 12.4183 16 8 16C3.58172 16 0 12.4183 0 8C0 3.58172 3.58172 0 8 0C12.4183 0 16 3.58172 16 8Z" fill="#008000"/>
<path d="M12.163 6.45857C12.1275 6.38229 12.051 6.33334 11.9667 6.33334H9.39925L11.9332 2.33259C11.9754 2.26587 11.978 2.18137 11.9399 2.11225C11.9017 2.04291 11.8289 2 11.7501 2H8.28341C8.20129 2 8.12631 2.04636 8.0895 2.11982L4.8395 8.61982C4.80591 8.68677 4.80959 8.7665 4.84902 8.83041C4.88868 8.89432 4.95822 8.93332 5.03341 8.93332H7.26138L4.83363 14.6992C4.79225 14.7978 4.82909 14.9122 4.92029 14.9681C4.95538 14.9896 4.99438 15 5.03318 15C5.09536 15 5.15668 14.9733 5.19916 14.9231L12.1325 6.68972C12.1869 6.62518 12.1986 6.53504 12.163 6.45857Z" fill="black"/>
</svg>
