<svg width="173" height="39" xmlns="http://www.w3.org/2000/svg">
  <g fill="none" fill-rule="evenodd">
    <g fill="#FFF">
      <path d="M98.3 20.8h-2.89v6.08h3.06c2.4 0 4.03-.78 4.03-3.12 0-2.31-1.89-2.96-4.2-2.96m-.61-9.17H95.4v5.3h2.31c2.47 0 3.54-.82 3.54-2.67 0-1.92-1.13-2.63-3.57-2.63m1.26 19.02h-8.64V7.92h7.86c5.27 0 8.3 1.92 8.3 5.76 0 2.56-1.37 4.25-4.1 4.9 3.48.46 5.4 2.54 5.4 5.56 0 4.59-3.71 6.5-8.82 6.5"/>
      <path d="M80.78 30.65V20.44c0-2.44-.7-3.67-2.7-3.67-2.09 0-3.26 1.78-3.26 4.64v9.24h-5.1v-13.4c0-1.79-.07-3.06-.1-4.03h4.88c.06.62.22 2.6.26 3.58.88-2.77 3.06-3.9 5.56-3.9 4.39 0 5.62 2.95 5.62 6.2v11.55h-5.16z"/>
      <path d="M45.85 22.06V7.92h5.2v13.75c0 3.58 1.66 5.24 4.58 5.24 3 0 4.49-1.72 4.49-5.4V7.92h5.23v13.92c0 6.27-3.73 9.13-9.82 9.13-5.82 0-9.68-2.63-9.68-8.9"/>
    </g>
    <g fill="#FBEC95">
      <path d="M168.6 27.12v-.65h-1.1c-.84 0-1.6.31-1.6 1.29 0 .63.4 1.2 1.22 1.2.86 0 1.48-.65 1.48-1.84zm3.68 3.4c-.55.04-.81.06-1.36.06-1.24 0-2.1-.55-2.11-1.6-.4 1.1-1.38 1.6-2.57 1.6-1.93 0-2.8-1.28-2.8-2.6 0-2.03 1.44-2.8 4.3-2.8h.86v-.74c0-.99-.46-1.36-1.24-1.36-.8 0-1.25.46-1.25 1.27l-2.33-.15c.14-1.56 1.31-2.64 3.73-2.64 2.45 0 3.55 1.1 3.55 3.18v3.42c0 .4.15.63.62.63h.6v1.72z"/>
      <path d="M159.46 21.72h2.51v8.7h-2.51v-8.7zm0-3.46h2.51v2.37h-2.51v-2.37z"/>
      <path d="M153.03 23.34c-1.02 0-1.65.71-1.65 2.61 0 1.76.52 2.63 1.64 2.63.86 0 1.73-.58 1.73-2.66 0-1.96-.84-2.58-1.72-2.58m-4.3 2.61c0-2.79 1.14-4.4 3.4-4.4 1.24 0 2.28.57 2.67 1.64.03-.53.1-1.2.13-1.47h2.42c-.03.27-.07 1.41-.07 2.06v6.7c0 2.57-1.49 3.8-4.31 3.8-2.66 0-3.7-1.17-3.93-2.55l2.5-.24c.13.7.57 1.18 1.5 1.18 1.05 0 1.7-.53 1.7-2.12v-1.27l.01-.5c-.4 1.02-1.31 1.62-2.79 1.62-2.22 0-3.23-1.69-3.23-4.45"/>
      <path d="M147.03 23.7c-1.33 0-1.93.9-1.93 2.2v4.52h-2.57v-6.64c0-.55-.05-1.87-.08-2.06h2.5c.03.39.1 1.07.11 1.57.25-.99.98-1.73 2.27-1.73.12 0 .36 0 .56.03v2.16c-.36-.05-.59-.05-.86-.05"/>
      <path d="M135.28 25.08h2.92v-.04c0-1.5-.55-1.96-1.43-1.96-.83 0-1.45.46-1.5 2m-2.69.94c0-3.4 1.92-4.46 4.24-4.46 3 0 4 1.8 4 4.22 0 .38-.04.76-.04.76h-5.5v.23c0 1.1.39 2.19 1.6 2.19.8 0 1.22-.36 1.37-1.2l2.4.14c-.33 1.41-1.17 2.68-3.85 2.68-2.7 0-4.22-1.5-4.22-4.56"/>
      <path d="M128.5 25.32c0-1.22-.35-1.83-1.35-1.83-1.04 0-1.63.89-1.63 2.32v4.6h-2.55v-6.68c0-.9-.03-1.53-.04-2.01h2.43c.02.24.1 1.1.13 1.78.44-1.28 1.41-1.94 2.77-1.94 2.2 0 2.81 1.47 2.81 3.1v5.76h-2.58v-5.1z"/>
      <path d="M113.07 19.07h7.71v2h-5.1v2.63h4.6v2.01h-4.6v2.63h5.2v2.08h-7.8z"/>
    </g>
    <g fill="#FDC300">
      <path d="M25.8 25.8a2.43 2.43 0 103.43 3.43 2.43 2.43 0 00-3.44-3.44"/>
      <path d="M17.5 17.5a2.43 2.43 0 103.43 3.43 2.43 2.43 0 00-3.43-3.43"/>
      <path d="M13.35 13.35a2.43 2.43 0 103.44 3.44 2.43 2.43 0 00-3.44-3.44"/>
      <path d="M9.2 9.2a2.43 2.43 0 103.44 3.44A2.43 2.43 0 009.2 9.2"/>
      <path d="M29.94 21.65a2.43 2.43 0 103.44 3.43 2.43 2.43 0 00-3.44-3.43"/>
      <path d="M13.35 5.05a2.43 2.43 0 103.44 3.44 2.43 2.43 0 00-3.44-3.44"/>
      <path d="M34.1 17.5a2.43 2.43 0 103.43 3.43 2.43 2.43 0 00-3.44-3.43"/>
      <path d="M29.94 13.35a2.43 2.43 0 103.44 3.44 2.43 2.43 0 00-3.44-3.44"/>
      <path d="M25.8 9.2a2.43 2.43 0 103.43 3.44A2.43 2.43 0 0025.8 9.2"/>
      <path d="M21.65 5.05a2.43 2.43 0 103.43 3.44 2.43 2.43 0 00-3.43-3.44"/>
      <path d="M17.5.9a2.43 2.43 0 103.43 3.44A2.43 2.43 0 0017.5.9"/>
      <path d="M21.65 29.94a2.43 2.43 0 103.43 3.44 2.43 2.43 0 00-3.43-3.44"/>
      <path d="M5.05 13.35a2.43 2.43 0 103.44 3.44 2.43 2.43 0 00-3.44-3.44"/>
      <path d="M17.5 34.1a2.43 2.43 0 103.43 3.43 2.43 2.43 0 00-3.43-3.44"/>
      <path d="M13.35 29.94a2.43 2.43 0 103.44 3.44 2.43 2.43 0 00-3.44-3.44"/>
      <path d="M9.2 25.8a2.43 2.43 0 103.44 3.43A2.43 2.43 0 009.2 25.8"/>
      <path d="M5.05 21.65a2.43 2.43 0 103.44 3.43 2.43 2.43 0 00-3.44-3.43"/>
      <path d="M.9 17.5a2.43 2.43 0 103.44 3.43A2.43 2.43 0 00.9 17.5"/>
    </g>
    <g fill="#FBEC95">
      <path d="M21.65 21.65a2.43 2.43 0 103.43 3.43 2.43 2.43 0 00-3.43-3.43"/>
      <path d="M25.8 17.5a2.43 2.43 0 103.43 3.43 2.43 2.43 0 00-3.44-3.43"/>
      <path d="M21.65 13.35a2.43 2.43 0 103.43 3.44 2.43 2.43 0 00-3.43-3.44"/>
      <path d="M17.5 9.2a2.43 2.43 0 103.43 3.44A2.43 2.43 0 0017.5 9.2"/>
      <path d="M17.5 25.8a2.43 2.43 0 103.43 3.43 2.43 2.43 0 00-3.43-3.44"/>
      <path d="M13.35 21.65a2.43 2.43 0 103.44 3.43 2.43 2.43 0 00-3.44-3.43"/>
      <path d="M9.2 17.5a2.43 2.43 0 103.44 3.43A2.43 2.43 0 009.2 17.5"/>
    </g>
  </g>
</svg>
