<?xml version="1.0" encoding="UTF-8"?>
<svg width="180px" height="48px" viewBox="0 0 180 48" version="1.1" xmlns="http://www.w3.org/2000/svg" xmlns:xlink="http://www.w3.org/1999/xlink">
    <!-- Generator: Sketch 61.2 (89653) - https://sketch.com -->
    <title>logo_unb</title>
    <desc>Created with Sketch.</desc>
    <g id="Assets" stroke="none" stroke-width="1" fill="none" fill-rule="evenodd">
        <g id="Assets-Mobile" transform="translate(-511.000000, -203.000000)">
            <g id="logo_unb" transform="translate(511.000000, 203.000000)">
                <path d="M106.987952,27.4477389 L106.987952,10.7462687 L113.158053,10.7462687 L113.158053,26.9868751 C113.158053,31.2121051 115.124006,33.1678714 118.593108,33.1678714 C122.141937,33.1678714 123.915379,31.134649 123.915379,26.7971077 L123.915379,10.7462687 L130.120482,10.7462687 L130.120482,27.178579 C130.120482,34.5891908 125.688821,37.9701493 118.476434,37.9701493 C111.575178,37.9701493 106.987952,34.8583507 106.987952,27.4477389" id="Fill-60" fill="#00417E"></path>
                <path d="M147.792795,37.9701493 L147.792795,26.0199465 C147.792795,23.1681717 146.977009,21.7211743 144.564949,21.7211743 C142.078371,21.7211743 140.6782,23.8129875 140.6782,27.1618078 L140.6782,37.9701493 L134.573532,37.9701493 L134.573532,22.2930645 C134.573532,20.1993322 134.495091,18.715872 134.457831,17.5720915 L140.289917,17.5720915 C140.368358,18.2975093 140.560538,20.6176948 140.60172,21.7576371 C141.650868,18.5239625 144.255107,17.1940299 147.251552,17.1940299 C152.499253,17.1940299 153.975904,20.6541576 153.975904,24.4597224 L153.975904,37.9701493 L147.792795,37.9701493 Z" id="Fill-61" fill="#00417E"></path>
                <path d="M169.417644,37.9701493 L159.036145,37.9701493 L159.036145,11.4626866 L168.482285,11.4626866 C174.807281,11.4626866 178.436474,13.7003295 178.436474,18.1737029 C178.436474,21.1706145 176.796149,23.1424178 173.519439,23.8997739 C177.696063,24.4333656 180,26.8584351 180,30.3851134 C180,35.7286813 175.547691,37.9701493 169.417644,37.9701493 M167.895471,15.7849712 L165.162253,15.7849712 L165.162253,21.9662208 L167.936823,21.9662208 C170.904373,21.9662208 172.188276,21.0157007 172.188276,18.8583834 C172.188276,16.6188279 170.823636,15.7849712 167.895471,15.7849712 M168.63785,26.4778445 L165.162253,26.4778445 L165.162253,33.571364 L168.832799,33.571364 C171.725519,33.571364 173.675004,32.6629192 173.675004,29.9299347 C173.675004,27.2371131 171.41242,26.4778445 168.63785,26.4778445" id="Fill-62" fill="#00417E"></path>
                <path d="M81.9609205,17.2192728 C77.0817449,20.7381215 71.7496826,23.7902434 66.0015066,26.2788073 C63.1603207,27.5066279 60.0984976,28.3568066 56.8721645,28.7615613 C54.5825712,29.0462453 52.2465279,29.1934288 49.8795181,29.1934288 L49.8795181,48 L96.8674699,48 L96.8674699,6.44776119 L81.962856,17.2212094 L81.9609205,17.2192728 Z" id="Fill-63" fill="#008237"></path>
                <path d="M14.9033862,17.2192728 C19.7821599,20.7381215 25.1157182,23.7902434 30.865356,26.2788073 C33.7063079,27.5066279 36.7659435,28.3568066 39.9920109,28.7615613 C42.2814156,29.0462453 44.6172664,29.1934288 46.9879518,29.1934288 L46.9879518,48 L0,48 L0,6.44776119 L14.9033862,17.2212094 L14.9033862,17.2192728 Z" id="Fill-64" fill="#008237"></path>
                <path d="M49.8795181,0 L49.8795181,26.5074627 C52.134274,26.5074627 54.3580633,26.3699005 56.5412089,26.1024186 C59.5081967,25.7355862 62.3203515,24.9656202 64.9331588,23.8498383 C70.5013414,21.4711594 75.6630873,18.5613378 80.3893654,15.1967968 L80.3893654,15.1987073 L96.8674699,3.45051734 L96.8674699,0 L49.8795181,0 Z" id="Fill-65" fill="#00417E"></path>
                <path d="M46.9879518,0 L46.9879518,26.5074627 C44.7313534,26.5074627 42.5095911,26.3699005 40.3265354,26.1024186 C37.3577344,25.7355862 34.5437601,24.9656202 31.9329958,23.8498383 C26.3669779,21.4711594 21.2035092,18.5613378 16.4754905,15.1967968 L16.4754905,15.1987073 L0,3.45051734 L0,0 L46.9879518,0 Z" id="Fill-66" fill="#00417E"></path>
            </g>
        </g>
    </g>
</svg>