<svg width="16" height="16" xmlns="http://www.w3.org/2000/svg">
  <g fill="none" fill-rule="nonzero">
    <path d="M9 .42a1.3 1.3 0 00-1.93 0L.42 7.04a1.3 1.3 0 000 1.92l6.65 6.62a1.3 1.3 0 001.92 0l6.65-6.62c.48-.55.48-1.37 0-1.92L9 .42z" fill="#F1C809"/>
    <path d="M7.83 12.12c.91 0 1.64-.23 2.2-.69.55-.46.83-1.06.83-1.82 0-.47-.12-.88-.36-1.22-.23-.34-.6-.6-1.07-.77.38-.18.7-.43.93-.76.24-.33.36-.69.36-1.08A2.2 2.2 0 009.95 4a3.19 3.19 0 00-2.12-.65c-.52 0-1 .1-1.42.3-.44.2-.77.48-1.01.83s-.36.75-.36 1.2h1.7c0-.29.1-.52.32-.7.22-.17.49-.26.81-.26.36 0 .65.1.85.28.2.2.3.46.3.8 0 .36-.1.65-.3.86-.2.22-.53.32-.96.32h-.9v1.33h.9c.93 0 1.4.42 1.4 1.28 0 .35-.11.63-.34.84-.23.22-.54.32-.95.32-.35 0-.64-.1-.88-.3a.98.98 0 01-.36-.79h-1.7c0 .74.27 1.33.81 1.78.55.45 1.24.68 2.1.68z" fill="#000"/>
  </g>
</svg>
