<svg width="16" height="16" xmlns="http://www.w3.org/2000/svg">
  <g fill="none" fill-rule="nonzero">
    <path d="M10.71 0H5.3c-.39 0-.76.15-1.03.43L.43 4.26C.15 4.53 0 4.9 0 5.29v5.42c0 .39.15.76.43 1.03l3.83 3.83c.27.28.64.43 1.03.43h5.42c.39 0 .76-.15 1.03-.43l3.83-3.83c.28-.27.43-.64.43-1.03V5.3c0-.39-.15-.76-.43-1.03L11.74.43A1.45 1.45 0 0010.71 0z" fill="#F13209"/>
    <path d="M10.99 12v-1.37H7.32L9.26 8.6c.53-.58.9-1.1 1.12-1.53.22-.44.33-.87.33-1.29 0-.77-.24-1.36-.73-1.79a3.03 3.03 0 00-2.05-.63 3.2 3.2 0 00-1.54.37c-.45.24-.8.58-1.05 1-.25.44-.37.91-.37 1.43h1.7c0-.43.1-.77.33-1.04.22-.26.52-.4.9-.4.36 0 .63.12.82.33.2.22.3.52.3.9 0 .27-.1.57-.28.87-.18.31-.46.67-.84 1.09l-2.76 2.94V12h5.85z" fill="#FFF"/>
  </g>
</svg>
