<svg width="248" height="147" xmlns="http://www.w3.org/2000/svg">
  <g fill="none" fill-rule="evenodd">
    <path d="M0 122.496V94.55h10.289v27.173c0 7.068 3.276 10.345 9.068 10.345 5.915 0 8.87-3.404 8.87-10.663V94.549h10.35v27.495c0 12.401-7.39 18.055-19.418 18.055C7.649 140.099 0 134.892 0 122.496" fill="#003F7A"/>
    <path d="M68.97 138.718v-19.843c0-4.743-1.36-7.142-5.356-7.142-4.132 0-6.455 3.473-6.455 9.035v17.95H47.037v-26.041c0-3.477-.13-5.943-.193-7.836h9.675c.13 1.2.447 5.056.515 6.953 1.74-5.373 6.065-7.583 11.03-7.583 8.704 0 11.158 5.75 11.158 12.07v22.437H68.97z" fill="#003F7A"/>
    <path d="M102.58 120.653h-5.71v12.002h6.031c4.745 0 7.951-1.542 7.951-6.16 0-4.559-3.719-5.842-8.272-5.842m-1.218-18.097h-4.491v10.46h4.553c4.875 0 6.988-1.605 6.988-5.264 0-3.784-2.243-5.196-7.05-5.196m2.496 37.543H86.8v-44.86h15.52c10.392 0 16.354 3.784 16.354 11.36 0 5.07-2.688 8.404-8.081 9.69 6.864.9 10.651 5.004 10.651 10.973 0 9.05-7.315 12.837-17.386 12.837" fill="#003F7A"/>
    <path fill="#FC0" d="M131.578 116.634h14.966v3.886h-9.925v5.118h8.948v3.918h-8.948v5.118h10.114v4.044h-15.155z"/>
    <path d="M162.163 128.796c0-2.37-.692-3.57-2.734-3.57-2.107 0-3.293 1.738-3.293 4.518v8.974h-5.17V125.7c0-1.738-.067-2.97-.1-3.918h4.94c.033.474.198 2.149.265 3.476.888-2.497 2.865-3.792 5.631-3.792 4.446 0 5.698 2.876 5.698 6.035v11.218h-5.237v-9.922z" fill="#FC0"/>
    <path d="M175.568 128.198h5.87v-.062c0-2.886-1.108-3.754-2.87-3.754-1.662 0-2.901.868-3 3.816m-5.412 1.8c0-6.485 3.848-8.533 8.511-8.533 6.033 0 8.022 3.444 8.022 8.068 0 .745-.065 1.458-.065 1.458h-11.056v.435c0 2.11.784 4.19 3.229 4.19 1.598 0 2.446-.684 2.74-2.297l4.826.279c-.652 2.7-2.348 5.12-7.728 5.12-5.447 0-8.48-2.855-8.48-8.72" fill="#FC0"/>
    <path d="M198.723 125.636c-2.698 0-3.916 1.77-3.916 4.298v8.784h-5.198v-12.924c0-1.074-.099-3.634-.165-4.013h5.067c.066.758.198 2.085.23 3.065.494-1.928 1.975-3.381 4.607-3.381.23 0 .724 0 1.119.063v4.202c-.725-.094-1.185-.094-1.744-.094" fill="#FC0"/>
    <path d="M209.75 125.047c-2.043 0-3.308 1.434-3.308 5.244 0 3.518 1.038 5.277 3.276 5.277 1.719 0 3.47-1.173 3.47-5.342 0-3.94-1.687-5.179-3.438-5.179m-8.594 5.244c0-5.602 2.27-8.826 6.778-8.826 2.498 0 4.574 1.14 5.351 3.29.065-1.076.195-2.411.26-2.964h4.833c-.066.553-.13 2.833-.13 4.136v13.451c0 5.147-2.984 7.622-8.627 7.622-5.32 0-7.395-2.345-7.849-5.114l4.994-.489c.26 1.402 1.136 2.378 3.017 2.378 2.076 0 3.373-1.075 3.373-4.267v-2.54c0-.26 0-.684.032-1.01-.81 2.052-2.627 3.257-5.578 3.257-4.443 0-6.454-3.387-6.454-8.924" fill="#FC0"/>
    <path d="M222.511 121.433h4.822v17.285h-4.822v-17.285zm0-6.87h4.822v4.709h-4.822v-4.709z" fill="#FC0"/>
    <path d="M240.827 132.108v-1.241h-2.15c-1.61 0-3.096.59-3.096 2.452 0 1.21.758 2.296 2.37 2.296 1.675 0 2.876-1.241 2.876-3.507zm7.173 6.486c-1.075.093-1.58.124-2.655.124-2.401 0-4.076-1.055-4.108-3.072-.79 2.11-2.686 3.072-4.992 3.072-3.761 0-5.467-2.452-5.467-4.965 0-3.879 2.812-5.368 8.374-5.368h1.675v-1.397c0-1.893-.885-2.606-2.402-2.606-1.58 0-2.433.868-2.433 2.42l-4.55-.28c.284-2.978 2.56-5.057 7.268-5.057 4.771 0 6.92 2.11 6.92 6.082v6.547c0 .776.284 1.21 1.2 1.21H248v3.29z" fill="#FC0"/>
    <path d="M141.357 53.967a5.183 5.183 0 000 7.32 5.16 5.16 0 007.307 0 5.182 5.182 0 000-7.32 5.16 5.16 0 00-7.307 0" fill="#FBEC95"/>
    <path d="M124.136 36.023a5.183 5.183 0 000 7.32 5.16 5.16 0 007.306 0 5.183 5.183 0 000-7.32 5.16 5.16 0 00-7.306 0" fill="#FBEC95"/>
    <path d="M114.49 27.741a5.183 5.183 0 000 7.32 5.16 5.16 0 007.308 0 5.183 5.183 0 000-7.32 5.16 5.16 0 00-7.307 0" fill="#FBEC95"/>
    <path d="M105.535 18.77a5.183 5.183 0 000 7.32 5.16 5.16 0 007.307 0 5.183 5.183 0 000-7.32 5.16 5.16 0 00-7.307 0" fill="#FBEC95"/>
    <path d="M148.935 44.995a5.184 5.184 0 000 7.32 5.16 5.16 0 007.307 0 5.183 5.183 0 000-7.32 5.161 5.161 0 00-7.307 0" fill="#FBEC95"/>
    <path d="M114.49 10.488a5.183 5.183 0 000 7.32 5.16 5.16 0 007.308 0 5.183 5.183 0 000-7.32 5.16 5.16 0 00-7.307 0" fill="#FBEC95"/>
    <path d="M158.58 36.023a5.183 5.183 0 000 7.32 5.16 5.16 0 007.307 0 5.183 5.183 0 000-7.32 5.16 5.16 0 00-7.307 0" fill="#FBEC95"/>
    <path d="M148.935 27.741a5.183 5.183 0 000 7.32 5.16 5.16 0 007.307 0 5.183 5.183 0 000-7.32 5.16 5.16 0 00-7.307 0" fill="#FBEC95"/>
    <path d="M141.357 18.77a5.183 5.183 0 000 7.32 5.16 5.16 0 007.307 0 5.182 5.182 0 000-7.32 5.16 5.16 0 00-7.307 0" fill="#FBEC95"/>
    <path d="M131.713 10.488a5.183 5.183 0 000 7.32 5.16 5.16 0 007.307 0 5.182 5.182 0 000-7.32 5.16 5.16 0 00-7.307 0" fill="#FBEC95"/>
    <path d="M124.136 1.516a5.182 5.182 0 000 7.32 5.16 5.16 0 007.306 0 5.182 5.182 0 000-7.32 5.16 5.16 0 00-7.306 0" fill="#FBEC95"/>
    <path d="M131.713 62.248a5.183 5.183 0 000 7.32 5.16 5.16 0 007.307 0 5.182 5.182 0 000-7.32 5.16 5.16 0 00-7.307 0" fill="#FBEC95"/>
    <path d="M97.269 27.741a5.183 5.183 0 000 7.32 5.16 5.16 0 007.306 0 5.182 5.182 0 000-7.32 5.16 5.16 0 00-7.306 0" fill="#FBEC95"/>
    <path d="M124.136 71.22a5.182 5.182 0 000 7.32 5.16 5.16 0 007.306 0 5.182 5.182 0 000-7.32 5.16 5.16 0 00-7.306 0" fill="#FBEC95"/>
    <path d="M114.49 62.248a5.183 5.183 0 000 7.32 5.16 5.16 0 007.308 0 5.183 5.183 0 000-7.32 5.16 5.16 0 00-7.307 0" fill="#FBEC95"/>
    <path d="M105.535 53.967a5.183 5.183 0 000 7.32 5.16 5.16 0 007.307 0 5.183 5.183 0 000-7.32 5.16 5.16 0 00-7.307 0" fill="#FBEC95"/>
    <path d="M97.269 44.995a5.184 5.184 0 000 7.32 5.16 5.16 0 007.306 0 5.182 5.182 0 000-7.32 5.16 5.16 0 00-7.306 0" fill="#FBEC95"/>
    <path d="M88.313 36.023a5.183 5.183 0 000 7.32 5.16 5.16 0 007.307 0 5.182 5.182 0 000-7.32 5.16 5.16 0 00-7.307 0" fill="#FBEC95"/>
    <path d="M131.713 44.995a5.183 5.183 0 000 7.32 5.16 5.16 0 007.307 0 5.182 5.182 0 000-7.32 5.16 5.16 0 00-7.307 0" fill="#FDC300"/>
    <path d="M141.357 36.023a5.183 5.183 0 000 7.32 5.16 5.16 0 007.307 0 5.182 5.182 0 000-7.32 5.16 5.16 0 00-7.307 0" fill="#FDC300"/>
    <path d="M131.713 27.741a5.183 5.183 0 000 7.32 5.16 5.16 0 007.307 0 5.182 5.182 0 000-7.32 5.16 5.16 0 00-7.307 0" fill="#FDC300"/>
    <path d="M124.136 18.77a5.183 5.183 0 000 7.32 5.16 5.16 0 007.306 0 5.183 5.183 0 000-7.32 5.16 5.16 0 00-7.306 0" fill="#FDC300"/>
    <path d="M124.136 53.967a5.183 5.183 0 000 7.32 5.16 5.16 0 007.306 0 5.183 5.183 0 000-7.32 5.16 5.16 0 00-7.306 0" fill="#FDC300"/>
    <path d="M114.49 44.995a5.184 5.184 0 000 7.32 5.16 5.16 0 007.308 0 5.183 5.183 0 000-7.32 5.161 5.161 0 00-7.307 0" fill="#FDC300"/>
    <path d="M105.535 36.023a5.183 5.183 0 000 7.32 5.16 5.16 0 007.307 0 5.183 5.183 0 000-7.32 5.16 5.16 0 00-7.307 0" fill="#FDC300"/>
  </g>
</svg>
