<svg width="379" height="83" xmlns="http://www.w3.org/2000/svg">
  <g fill="none" fill-rule="evenodd">
    <path d="M100 48.3V17h11.47v30.42c0 7.92 3.65 11.59 10.1 11.59 6.6 0 9.9-3.81 9.9-11.94V17H143v30.79C143 61.67 134.76 68 121.36 68 108.53 68 100 62.17 100 48.3" fill="#003F7A"/>
    <path d="M177.6 67V44.57c0-5.36-1.51-8.07-5.95-8.07-4.6 0-7.18 3.93-7.18 10.21V67H153.2V37.57c0-3.93-.14-6.72-.21-8.86h10.76c.14 1.36.5 5.72.57 7.86 1.93-6.07 6.74-8.57 12.26-8.57 9.68 0 12.41 6.5 12.41 13.64V67h-11.4z" fill="#003F7A"/>
    <path d="M216.4 45.33h-6.29V58.7h6.65c5.24 0 8.78-1.72 8.78-6.86 0-5.08-4.1-6.51-9.13-6.51m-1.34-20.18h-4.96v11.66h5.02c5.38 0 7.71-1.78 7.71-5.86 0-4.22-2.47-5.8-7.77-5.8M217.82 67H199V17h17.12c11.47 0 18.04 4.22 18.04 12.66 0 5.65-2.96 9.37-8.91 10.8 7.57 1 11.75 5.58 11.75 12.23C237 62.78 228.93 67 217.82 67" fill="#003F7A"/>
    <path fill="#FC0" d="M249 42h16.79v4.4h-11.14v5.79h10.04v4.44h-10.04v5.79H266V67h-17z"/>
    <path d="M282.3 55.5c0-2.75-.75-4.14-2.98-4.14-2.3 0-3.58 2.01-3.58 5.24V67h-5.63V51.9c0-2-.07-3.43-.11-4.53h5.38c.03.55.21 2.49.29 4.03a6.02 6.02 0 016.13-4.4c4.84 0 6.2 3.33 6.2 7v13h-5.7V55.5z" fill="#FC0"/>
    <path d="M297.9 54.8h6.38v-.07c0-3.34-1.2-4.35-3.12-4.35-1.81 0-3.16 1-3.27 4.43M292 56.89c0-7.52 4.19-9.89 9.27-9.89 6.56 0 8.73 4 8.73 9.35 0 .87-.07 1.7-.07 1.7h-12.04v.5c0 2.44.86 4.85 3.52 4.85 1.74 0 2.66-.79 2.98-2.66l5.25.32c-.7 3.13-2.55 5.94-8.4 5.94-5.94 0-9.24-3.3-9.24-10.1" fill="#FC0"/>
    <path d="M323.1 51.84c-2.94 0-4.26 2.05-4.26 4.98V67h-5.66V52.02c0-1.25-.1-4.21-.18-4.65h5.52c.07.88.21 2.41.25 3.55a4.82 4.82 0 015.01-3.92c.25 0 .79 0 1.22.07v4.88c-.79-.11-1.29-.11-1.9-.11" fill="#FC0"/>
    <path d="M336.48 50.93c-2.25 0-3.65 1.57-3.65 5.75 0 3.86 1.15 5.78 3.62 5.78 1.9 0 3.82-1.28 3.82-5.85 0-4.32-1.86-5.68-3.79-5.68M327 56.68c0-6.14 2.5-9.68 7.48-9.68 2.75 0 5.04 1.25 5.9 3.6.07-1.17.22-2.64.29-3.24H346c-.07.6-.14 3.1-.14 4.53v14.75c0 5.65-3.3 8.36-9.52 8.36-5.87 0-8.16-2.57-8.66-5.6l5.51-.54c.29 1.53 1.25 2.6 3.33 2.6 2.29 0 3.72-1.17 3.72-4.67V64c0-.29 0-.75.03-1.1-.89 2.24-2.9 3.56-6.15 3.56-4.9 0-7.12-3.71-7.12-9.78" fill="#FC0"/>
    <path d="M350 48.4h6V67h-6V48.4zm0-7.4h6v5.07h-6V41z" fill="#FC0"/>
    <path d="M370.67 59.34V57.9h-2.5c-1.87 0-3.6.68-3.6 2.84 0 1.4.89 2.66 2.76 2.66 1.95 0 3.34-1.44 3.34-4.06zm8.33 7.52c-1.25.1-1.84.14-3.08.14-2.8 0-4.74-1.22-4.77-3.56-.92 2.44-3.12 3.56-5.8 3.56-4.37 0-6.35-2.84-6.35-5.76 0-4.5 3.27-6.22 9.73-6.22h1.94V53.4c0-2.2-1.03-3.02-2.79-3.02-1.83 0-2.82 1-2.82 2.8l-5.29-.32c.33-3.45 2.97-5.86 8.44-5.86 5.54 0 8.04 2.45 8.04 7.05v7.59c0 .9.33 1.4 1.4 1.4H379v3.82z" fill="#FC0"/>
    <path d="M56.46 56.46a5 5 0 107.07 7.08 5 5 0 00-7.07-7.08" fill="#FBEC95"/>
    <path d="M38.46 38.46a5 5 0 107.08 7.08 5 5 0 00-7.08-7.08" fill="#FBEC95"/>
    <path d="M28.46 28.46a5 5 0 107.08 7.08 5 5 0 00-7.08-7.08" fill="#FBEC95"/>
    <path d="M19.46 19.46a5 5 0 107.08 7.08 5 5 0 00-7.08-7.08" fill="#FBEC95"/>
    <path d="M65.46 47.46a5 5 0 107.08 7.08 5 5 0 00-7.08-7.08" fill="#FBEC95"/>
    <path d="M28.46 11.46a5 5 0 107.08 7.08 5 5 0 00-7.08-7.08" fill="#FBEC95"/>
    <path d="M74.46 38.46a5 5 0 107.08 7.08 5 5 0 00-7.08-7.08" fill="#FBEC95"/>
    <path d="M65.46 28.46a5 5 0 107.08 7.08 5 5 0 00-7.08-7.08" fill="#FBEC95"/>
    <path d="M56.46 19.46a5 5 0 107.07 7.08 5 5 0 00-7.07-7.08" fill="#FBEC95"/>
    <path d="M47.46 11.46a5 5 0 107.08 7.08 5 5 0 00-7.08-7.08" fill="#FBEC95"/>
    <path d="M38.46 1.46a5 5 0 107.08 7.08 5 5 0 00-7.08-7.08" fill="#FBEC95"/>
    <path d="M47.46 65.46a5 5 0 107.08 7.08 5 5 0 00-7.08-7.08" fill="#FBEC95"/>
    <path d="M11.46 28.46a5 5 0 107.08 7.08 5 5 0 00-7.08-7.08" fill="#FBEC95"/>
    <path d="M38.46 74.46a5 5 0 107.08 7.08 5 5 0 00-7.08-7.08" fill="#FBEC95"/>
    <path d="M28.46 65.46a5 5 0 107.08 7.08 5 5 0 00-7.08-7.08" fill="#FBEC95"/>
    <path d="M19.46 56.46a5 5 0 107.08 7.08 5 5 0 00-7.08-7.08" fill="#FBEC95"/>
    <path d="M11.46 47.46a5 5 0 107.08 7.08 5 5 0 00-7.08-7.08" fill="#FBEC95"/>
    <path d="M1.46 38.46a5 5 0 107.08 7.08 5 5 0 00-7.08-7.08" fill="#FBEC95"/>
    <path d="M47.46 47.46a5 5 0 107.08 7.08 5 5 0 00-7.08-7.08" fill="#FDC300"/>
    <path d="M56.46 38.46a5 5 0 107.07 7.08 5 5 0 00-7.07-7.08" fill="#FDC300"/>
    <path d="M47.46 28.46a5 5 0 107.08 7.08 5 5 0 00-7.08-7.08" fill="#FDC300"/>
    <path d="M38.46 19.46a5 5 0 107.08 7.08 5 5 0 00-7.08-7.08" fill="#FDC300"/>
    <path d="M38.46 56.46a5 5 0 107.08 7.08 5 5 0 00-7.08-7.08" fill="#FDC300"/>
    <path d="M28.46 47.46a5 5 0 107.08 7.08 5 5 0 00-7.08-7.08" fill="#FDC300"/>
    <path d="M19.46 38.46a5 5 0 107.08 7.08 5 5 0 00-7.08-7.08" fill="#FDC300"/>
  </g>
</svg>
