<svg width="16" height="16" xmlns="http://www.w3.org/2000/svg">
  <g fill="none" fill-rule="nonzero">
    <path d="M9 .42a1.3 1.3 0 00-1.93 0L.42 7.04a1.3 1.3 0 000 1.92l6.65 6.62a1.3 1.3 0 001.92 0l6.65-6.62c.48-.55.48-1.37 0-1.92L9 .42z" fill="#F1C809"/>
    <path d="M8.06 12.12c.6 0 1.1-.12 1.54-.36.43-.24.76-.58 1-1.02.23-.43.34-.93.34-1.48 0-.9-.23-1.6-.69-2.11-.46-.5-1.1-.76-1.9-.76-.46 0-.89.11-1.29.32l.21-1.83h3.4V3.47H5.87L5.4 7.8l1.35.34.16-.15c.25-.21.58-.32.98-.32.44 0 .78.13 1.01.39.24.25.36.63.36 1.11 0 .5-.1.9-.31 1.17-.2.27-.5.41-.88.41-.35 0-.63-.1-.84-.3-.21-.2-.34-.47-.37-.82H5.17c.02.48.15.91.41 1.3.26.37.6.66 1.05.87.44.21.92.32 1.43.32z" fill="#000"/>
  </g>
</svg>
