<svg width="178" height="89" xmlns="http://www.w3.org/2000/svg">
  <g fill="none" fill-rule="evenodd">
    <path d="M57.94 63.34c0 .94-.39 1.7-1.16 2.28a5.4 5.4 0 01-3.26.86h-.77l-.6 2.56h-2.03l1.82-7.88h2.82c.51 0 .96.04 1.34.1.39.08.72.2 1 .37.27.17.48.4.62.68.15.28.22.62.22 1.03zm-2.16.2c0-.3-.12-.54-.34-.68a1.79 1.79 0 00-.99-.22h-.82L53.1 65h.73c.62 0 1.1-.13 1.44-.39.34-.24.52-.6.52-1.07zm7.42 1.37h-.17l-.36-.06a5.03 5.03 0 00-1.9.21l-.91 3.98h-1.92l1.38-5.94h1.9l-.2.87c.37-.26.73-.47 1.08-.64.36-.17.72-.25 1.08-.25h.23l.21.02-.42 1.81zm6.96.37c0 .55-.1 1.08-.28 1.56a3.62 3.62 0 01-2.01 2.1c-.47.2-1.01.3-1.63.3-.88 0-1.57-.22-2.04-.65-.46-.42-.7-1-.7-1.75 0-.53.09-1.04.26-1.51a3.62 3.62 0 012.02-2.1c.48-.21 1.03-.31 1.64-.31.88 0 1.56.2 2.03.63.47.41.7.99.7 1.73zm-2.47 1.95c.16-.26.28-.52.36-.81.09-.3.13-.65.13-1.08 0-.36-.08-.64-.24-.84-.16-.2-.41-.29-.76-.29-.26 0-.5.07-.7.2-.2.13-.38.31-.54.55a3.89 3.89 0 00-.47 1.84c0 .4.1.7.28.87.18.17.42.26.74.26.22 0 .44-.06.66-.18.2-.13.39-.3.54-.52zm10.18-4.13l-1.19 5.26a4.37 4.37 0 01-.56 1.41c-.23.37-.52.67-.86.9-.35.22-.74.39-1.15.48-.41.09-.87.13-1.39.13a9.73 9.73 0 01-2.21-.25l.3-1.46h.22c.3.11.6.2.89.27a3.94 3.94 0 001.67 0c.24-.06.44-.14.58-.26.15-.12.27-.27.36-.45.1-.18.16-.4.22-.67l.03-.1c-.28.18-.55.33-.82.44-.27.1-.58.16-.92.16-.67 0-1.19-.17-1.56-.5-.38-.34-.56-.85-.56-1.52 0-1.17.33-2.13.98-2.88a3.08 3.08 0 012.4-1.12c.33 0 .65.04.92.12.28.08.5.18.67.3l.13-.26h1.85zm-2.22 1.38c-.1-.05-.24-.1-.4-.13a1.8 1.8 0 00-.45-.06c-.56 0-1.02.2-1.37.64-.34.42-.51.98-.51 1.64 0 .3.07.54.22.71.15.17.41.26.8.26.18 0 .37-.04.56-.11.2-.07.38-.16.55-.26l.6-2.7zm7.9.43h-.17l-.36-.06a4.96 4.96 0 00-1.9.21l-.92 3.98h-1.9l1.36-5.94h1.91l-.2.87c.36-.26.72-.47 1.08-.64a2.5 2.5 0 011.08-.25h.22l.22.02-.42 1.81zm4.36 1.33l-.95.1c-.3.04-.55.1-.76.17-.21.08-.38.18-.49.33a.88.88 0 00-.17.56c0 .2.08.35.23.43.14.09.36.12.65.12.18 0 .38-.04.6-.12.21-.1.4-.2.6-.34l.29-1.25zm-.5 2.18c-.13.07-.27.16-.44.28a3.56 3.56 0 01-1.02.44c-.17.04-.42.06-.72.06-.5 0-.9-.13-1.2-.41a1.38 1.38 0 01-.47-1.08c0-.47.1-.87.33-1.2.22-.32.55-.59.99-.78.4-.18.9-.32 1.45-.4.57-.08 1.18-.14 1.84-.17l.02-.11a.7.7 0 00.02-.16.53.53 0 00-.35-.53c-.23-.1-.58-.15-1.04-.15-.32 0-.66.05-1.04.16-.38.1-.66.2-.85.27h-.17l.28-1.41a12.69 12.69 0 012.41-.3c.93 0 1.61.12 2.05.36.43.25.65.63.65 1.14a3.29 3.29 0 01-.07.57l-.93 4.04h-1.89l.14-.62zm14.17-4c0 .11 0 .23-.02.36a2.9 2.9 0 01-.07.4l-.9 3.86h-1.92l.69-2.97.13-.59c.03-.18.05-.33.05-.44 0-.21-.05-.36-.17-.46-.11-.1-.32-.14-.6-.14-.14 0-.3.03-.47.1-.17.06-.38.16-.63.3l-.97 4.2h-1.92l.68-2.97.12-.56c.04-.2.06-.35.06-.46 0-.2-.06-.37-.16-.46-.11-.1-.31-.15-.6-.15-.16 0-.32.04-.5.1-.18.07-.38.17-.6.3l-.98 4.2h-1.9l1.36-5.94h1.91l-.15.65c.39-.25.74-.45 1.05-.6.31-.14.65-.21 1.01-.21.4 0 .72.08.99.26s.45.43.56.77c.47-.34.9-.6 1.27-.77.37-.18.73-.26 1.08-.26.52 0 .92.12 1.19.38.27.26.41.63.41 1.1zm5 1.82l-.96.1c-.3.04-.54.1-.75.17-.22.08-.38.18-.5.33a.88.88 0 00-.17.56c0 .2.08.35.23.43.15.09.37.12.65.12.19 0 .4-.04.6-.12.21-.1.42-.2.6-.34l.3-1.25zm-.5 2.18c-.13.07-.27.16-.44.28a3.56 3.56 0 01-1.02.44c-.18.04-.42.06-.72.06-.5 0-.9-.13-1.21-.41a1.38 1.38 0 01-.47-1.08c0-.47.11-.87.34-1.2.21-.32.55-.59.98-.78.41-.18.9-.32 1.46-.4.57-.08 1.18-.14 1.84-.17 0-.03 0-.06.02-.11l.01-.16a.53.53 0 00-.34-.53c-.24-.1-.58-.15-1.04-.15-.32 0-.66.05-1.04.16-.38.1-.67.2-.85.27h-.18l.28-1.41a12.69 12.69 0 012.42-.3c.93 0 1.61.12 2.04.36.44.25.66.63.66 1.14a3.29 3.29 0 01-.07.57l-.93 4.04h-1.89l.14-.62zm14.85-7.61l-1.9 8.23h-1.9l.13-.61-.48.31a2.9 2.9 0 01-.93.42c-.15.03-.34.05-.55.05-.57 0-1.04-.2-1.38-.56-.34-.37-.51-.9-.51-1.6a4.6 4.6 0 011.02-2.9c.3-.37.67-.67 1.1-.88.42-.22.86-.33 1.32-.33.32 0 .6.03.85.1.23.06.48.16.73.3l.6-2.53h1.9zm-2.76 3.68a2.53 2.53 0 00-.84-.2 1.7 1.7 0 00-1.44.75c-.15.21-.26.48-.36.8-.08.32-.13.64-.13.94 0 .35.08.61.25.77.17.16.42.25.76.25.17 0 .35-.04.54-.12.2-.08.38-.17.55-.28l.67-2.91zm7.44.82l.03-.18v-.16a.8.8 0 00-.26-.64c-.16-.15-.42-.22-.74-.22-.39 0-.72.1-.98.31-.27.22-.47.5-.6.9h2.55zm-1.45 3.9c-1 0-1.79-.23-2.33-.68a2.26 2.26 0 01-.83-1.86 3.6 3.6 0 011.04-2.68c.33-.33.73-.59 1.22-.78a4.2 4.2 0 011.6-.3c.88 0 1.55.19 2 .54.44.36.67.89.67 1.59a5.3 5.3 0 01-.26 1.39h-4.4v.12c0 .41.14.73.43.97.3.23.73.35 1.33.35.41 0 .8-.07 1.18-.22.37-.14.7-.3.96-.47h.22l-.36 1.53a5.84 5.84 0 01-2.47.5z" fill="#004D71"/>
    <path fill="#005E83" d="M.17 56.79h177v-.52H.17z"/>
    <path fill="#005E83" d="M.17 88.04h177v-.53H.17z"/>
    <path d="M46.3 6.29L47.4.01h2.31c8.66 0 14.45 7.03 12.92 15.72-1.53 8.68-9.79 15.73-18.45 15.73l-2.3-.01 1.1-6.27H33.1l1.11-6.3 9.72.1 1.28-6.4h-9.89l1.1-6.29h9.9z" fill="#004D71"/>
    <path d="M13.13 31.42c-9.88 0-14.18-8.48-12.91-15.7C1.57 8.03 8.27 0 18.65 0h11.72l-1.11 6.29h-9.89l-1.1 6.3h9.88l-1.1 6.3h-9.9l-1.1 6.29h9.89l-1.1 6.24H13.12z" fill="#004D71"/>
    <path fill="#004D71" d="M100.71 39.35l-1.42 7.79h3.94l.13-.71h-3.04l.55-3h2.14l.13-.71H101l.48-2.66h2.91l.12-.71z"/>
    <path fill="#004D71" d="M106.38 40.91l-1.14 6.24h.72l.99-5.43h.02l1.08 5.43h.77l1.14-6.24h-.72l-.84 4.59h-.02l-.88-4.59z"/>
    <path fill="#004D71" d="M111.95 40.91l-1.14 6.24h3.16l.1-.57h-2.43l.43-2.41h1.72l.11-.57h-1.72l.39-2.12h2.32l.11-.57z"/>
    <path d="M117.53 41.48h.63c1.03 0 1.3.38 1.16 1.08-.12.7-.53 1.08-1.56 1.08h-.63l.4-2.16zm-1.76 5.67h.72l.53-2.93.95-.03.53 2.96h.76l-.56-3.1a1.9 1.9 0 001.35-1.53c.19-1.03-.46-1.61-1.53-1.61h-1.61l-1.14 6.24z" fill="#004D71"/>
    <path d="M125.52 42.82c.1-1-.17-2-1.4-2-1.16 0-2.05.85-2.49 3.2-.43 2.36.15 3.21 1.33 3.21.54 0 .97-.2 1.3-.55l.01.47h.46l.54-2.92h-1.63l-.1.57h.9l-.16.88c-.11.63-.54.98-1.22.98-.8 0-1.06-.67-.7-2.63.35-1.97.86-2.64 1.66-2.64.73 0 .88.62.79 1.43h.71z" fill="#004D71"/>
    <path fill="#004D71" d="M126.81 47.02l1.11-6.11.7.12-1.12 6.12z"/>
    <path d="M132.12 41.37h.02l.12 3.35h-1.49l1.35-3.35zm-.4-.46l-2.61 6.23h.72l.74-1.85h1.69l.06 1.85h.72l-.33-6.23h-1z" fill="#004D71"/>
    <path fill="#004D71" d="M139.08 39.35l-1.42 7.79h3.94l.13-.71h-3.04l.55-3h2.14l.13-.71h-2.15l.49-2.66h2.91l.13-.71z"/>
    <path fill="#004D71" d="M144.85 40.91l-1.14 6.24h2.87l.1-.57h-2.15l1.03-5.67z"/>
    <path d="M152.17 39.39h-.72l-1.13 1.19h.46l1.39-1.2zm-2.87 1.52l-1.14 6.23h3.15l.1-.57h-2.43l.44-2.4h1.71l.1-.57h-1.7l.38-2.12h2.33l.1-.57h-3.04z" fill="#004D71"/>
    <path d="M7.05 39.91h.02l.16 4.2H5.36l1.69-4.2zm-.5-.58l-3.26 7.8h.9l.92-2.31h2.12l.07 2.3h.9l-.4-7.8H6.54z" fill="#004D71"/>
    <path d="M14.26 42.8c.09-1-.17-2-1.4-2-1.17 0-2.06.85-2.5 3.2-.43 2.37.16 3.21 1.33 3.21.54 0 .97-.2 1.31-.55v.47h.47L14 44.2h-1.62l-.1.57h.9l-.17.88c-.11.64-.54.98-1.22.98-.8 0-1.06-.67-.7-2.63.35-1.96.87-2.64 1.67-2.64.72 0 .87.63.78 1.44h.72z" fill="#004D71"/>
    <path d="M16.9 40.56h.58l.82-.88.5.88h.59l-.72-1.2h-.63l-1.15 1.2zm-.32.33l-1.13 6.24h3.15l.1-.57h-2.43l.44-2.4h1.72l.1-.58H16.8l.4-2.12h2.31l.1-.57h-3.04z" fill="#004D71"/>
    <path fill="#004D71" d="M21.44 40.89l-1.14 6.24h.72l.99-5.43h.02l1.08 5.43h.77l1.14-6.24h-.72l-.84 4.6h-.02l-.88-4.6z"/>
    <path d="M30.1 42.77c.13-1.33-.36-1.97-1.34-1.97-1.2 0-2.09.85-2.52 3.2-.43 2.37.15 3.21 1.34 3.21 1.14 0 1.93-.77 2.2-2.15h-.72c-.23 1.15-.7 1.58-1.37 1.58-.84 0-1.08-.69-.73-2.63.36-1.94.85-2.64 1.69-2.64.56 0 .82.42.73 1.4h.72z" fill="#004D71"/>
    <path fill="#004D71" d="M31.4 47l1.12-6.11.69.13-1.11 6.11z"/>
    <path d="M36.7 41.36h.02l.13 3.35h-1.5l1.35-3.35zm-.4-.47l-2.6 6.24h.71l.74-1.85h1.7l.06 1.85h.72l-.33-6.24h-1z" fill="#004D71"/>
    <path fill="#004D71" d="M43.51 39.33l-1.42 7.8h.9l1.24-6.79h.02l1.34 6.79h.97l1.43-7.8h-.9l-1.05 5.74h-.03l-1.09-5.74z"/>
    <path d="M51.37 41.36h.02l.13 3.35h-1.5l1.35-3.35zm-.4-.47l-2.6 6.24h.72l.73-1.85h1.7l.05 1.85h.72l-.32-6.24h-1z" fill="#004D71"/>
    <path d="M58.08 42.77c.13-1.33-.36-1.97-1.35-1.97-1.19 0-2.08.85-2.5 3.2-.44 2.37.14 3.21 1.33 3.21 1.13 0 1.93-.77 2.2-2.15h-.72c-.23 1.15-.7 1.58-1.38 1.58-.83 0-1.08-.69-.72-2.63.35-1.94.85-2.64 1.69-2.64.56 0 .82.42.73 1.4h.72z" fill="#004D71"/>
    <path fill="#004D71" d="M59.38 47l1.12-6.11.69.13-1.11 6.11z"/>
    <path d="M65.63 44c-.39 2.13-1 2.64-1.65 2.64-.64 0-1.06-.51-.67-2.63.38-2.12 1-2.64 1.64-2.64.64 0 1.06.52.68 2.64m.72 0c.42-2.32-.18-3.2-1.3-3.2s-2.04.88-2.46 3.2c-.43 2.32.17 3.2 1.3 3.2 1.12 0 2.03-.88 2.46-3.2" fill="#004D71"/>
    <path fill="#004D71" d="M68.71 40.89l-1.14 6.24h.72l.99-5.43h.02l1.08 5.43h.77l1.14-6.24h-.72l-.84 4.6h-.02l-.88-4.6z"/>
    <path d="M75.61 41.36h.02l.13 3.35h-1.5l1.35-3.35zm-.4-.47l-2.6 6.24h.72l.73-1.85h1.7l.05 1.85h.72l-.32-6.24h-1z" fill="#004D71"/>
    <path fill="#004D71" d="M79.21 40.89l-1.13 6.24h2.87l.1-.57H78.9l1.03-5.67z"/>
    <path d="M87.15 41.46h.39c1.05 0 1.59.41 1.2 2.55-.4 2.13-1.08 2.55-2.13 2.55h-.39l.93-5.1zm-1.75 5.67h1.24c1.4 0 2.38-.73 2.81-3.12.44-2.4-.27-3.12-1.68-3.12h-1.23l-1.14 6.24z" fill="#004D71"/>
    <path fill="#004D71" d="M92 40.89l-1.13 6.24h3.15l.1-.57h-2.43l.44-2.4h1.71l.11-.57h-1.72l.39-2.13h2.32l.11-.57z"/>
    <path fill="#004D71" d="M153.71 40.91l-.1.57h1.36l-1.03 5.67h.72l1.03-5.67h1.37l.1-.57z"/>
    <path d="M159.32 41.48h.63c1.04 0 1.3.38 1.17 1.08-.13.7-.53 1.08-1.57 1.08h-.62l.4-2.16zm-1.75 5.67h.72l.53-2.93.95-.03.53 2.96h.75l-.56-3.1a1.9 1.9 0 001.35-1.53c.2-1.03-.46-1.61-1.53-1.61h-1.6l-1.14 6.24z" fill="#004D71"/>
    <path fill="#004D71" d="M163.12 47.02l1.12-6.11.69.12-1.11 6.12z"/>
    <path d="M170.2 42.79c.13-1.33-.36-1.97-1.35-1.97-1.19 0-2.08.85-2.51 3.2-.43 2.37.15 3.21 1.34 3.21 1.14 0 1.92-.78 2.2-2.16h-.72c-.23 1.16-.7 1.6-1.37 1.6-.84 0-1.08-.7-.73-2.64.36-1.95.85-2.64 1.69-2.64.56 0 .82.42.73 1.4h.72z" fill="#004D71"/>
    <path d="M173.91 41.37h.02l.13 3.35h-1.5l1.35-3.35zm-.4-.46l-2.6 6.23h.72l.73-1.85h1.7l.05 1.85h.72l-.32-6.23h-1z" fill="#004D71"/>
    <path d="M84.34 6.98h.09l.66 12.57h-5.87l5.12-12.57zM74.4 31.34l2.82-6.55h8.2l.35 6.55h5.67l-2-31.06h-7.6L68.7 31.34h5.7z" fill="#949300"/>
    <path fill="#949300" d="M99.48 31.34L103 11.29h.09l5.53 20.05h5.66L119.74.27h-5.4l-3.24 18.42h-.08L106.01.27h-6.48l-5.46 31.07z"/>
    <path fill="#949300" d="M135.68 31.34l.92-5.25h-10.73l1.44-8.18h7.85l.92-5.24h-7.85l1.26-7.15h10.29l.93-5.25h-16.22l-5.47 31.07z"/>
    <path fill="#949300" d="M156.68 31.34l.92-5.25h-10.73l1.44-8.18h7.85l.92-5.24h-7.85l1.26-7.15h10.29l.93-5.25h-16.22l-5.47 31.07z"/>
    <path fill="#949300" d="M176.23 31.34l.93-5.25h-9.53L172.17.27h-5.92l-5.47 31.07z"/>
    <path d="M33.68 73.7l-.35 1.49h-3.67l-.33 1.4h3.4l-.34 1.5H29l-.46 2h3.66l-.34 1.49h-5.69l1.82-7.88h5.7zm3.13 1.94h1.46L38 76.88h-1.4l-1.09 4.7h-1.9l1.07-4.7h-.81l.29-1.24h.8l.05-.16c.15-.71.45-1.26.88-1.63.43-.37 1.07-.56 1.9-.56a9.15 9.15 0 011.4.1l-.3 1.35h-.15l-.34-.09a2.26 2.26 0 00-.42-.04c-.35 0-.6.06-.76.2-.17.14-.3.4-.4.78v.05zm4.49 0l-1.37 5.94H38l1.38-5.94h1.91zm.58-2.3l-.33 1.45h-2.02l.33-1.45h2.02zm2.9 8.4c-.41 0-.8-.05-1.14-.16-.36-.1-.67-.25-.93-.46a2.14 2.14 0 01-.6-.79 2.58 2.58 0 01-.22-1.09c0-.53.1-1.02.3-1.48a3.77 3.77 0 012.17-2 4.7 4.7 0 012.76-.17c.36.08.7.2 1 .36l-.4 1.62h-.28c-.2-.25-.44-.43-.7-.56a2.06 2.06 0 00-.88-.18c-.6 0-1.08.21-1.44.64-.37.42-.55.95-.55 1.59 0 .44.11.77.33.99.23.21.58.33 1.05.33.37 0 .7-.08 1-.23.3-.15.56-.32.77-.5h.27l-.4 1.63a4.61 4.61 0 01-2.11.46zm6.58-6.1l-1.37 5.94h-1.92l1.38-5.94h1.9zm.58-2.3l-.33 1.45h-2.02l.34-1.45h2.01zm4.63 4.5l.02-.17.01-.17c0-.28-.08-.49-.26-.64-.17-.15-.42-.22-.74-.22-.4 0-.72.1-.98.32-.28.2-.47.5-.61.88h2.56zm-1.45 3.9c-1.01 0-1.8-.23-2.34-.68a2.26 2.26 0 01-.82-1.85c0-.55.09-1.04.27-1.49a3.53 3.53 0 011.98-1.98c.5-.2 1.02-.3 1.6-.3.89 0 1.56.19 2 .54.45.36.68.9.68 1.6 0 .23-.03.47-.07.7-.05.22-.11.45-.2.68h-4.4v.12c0 .41.15.73.44.97.29.23.73.35 1.32.35.42 0 .81-.07 1.18-.21.37-.15.7-.3.97-.47h.21l-.35 1.52a6.36 6.36 0 01-2.47.5zm3.1-6.95h-1.36l-.7-1.16-1.24 1.16H53.5l2.17-2.08H57l1.21 2.08zm7.68 2.19l-.03.34-.06.39-.9 3.87H63l.68-2.95a13.24 13.24 0 00.16-1c0-.23-.06-.4-.18-.5-.11-.1-.32-.16-.63-.16-.15 0-.33.04-.53.1a5 5 0 00-.66.3l-.97 4.21h-1.91l1.37-5.94h1.91l-.15.65c.39-.26.75-.46 1.07-.6.32-.15.67-.22 1.06-.22.53 0 .94.13 1.24.39.3.26.45.63.45 1.12zm3.81 4.76c-.4 0-.78-.05-1.13-.16-.35-.1-.67-.25-.93-.46a2.18 2.18 0 01-.6-.79 2.58 2.58 0 01-.22-1.09 3.66 3.66 0 012.47-3.48 4.65 4.65 0 012.77-.17c.35.08.68.2.99.36l-.4 1.62h-.27c-.2-.25-.44-.43-.7-.56a2.05 2.05 0 00-.89-.18c-.6 0-1.08.21-1.45.64a2.4 2.4 0 00-.54 1.59c0 .44.11.77.34.99.22.21.57.33 1.04.33.37 0 .7-.08 1-.23.3-.15.56-.32.78-.5h.26l-.4 1.63a4.64 4.64 0 01-2.12.46zm6.6-6.1l-1.38 5.94H73l1.38-5.94h1.91zm.57-2.3l-.33 1.45h-2.02l.33-1.45h2.02zm4.08 5.43l-.96.1c-.3.04-.54.1-.75.17-.22.08-.38.19-.5.33a.87.87 0 00-.16.56c0 .2.07.35.22.44.15.08.37.12.66.12.18 0 .38-.05.6-.13.2-.09.4-.2.6-.33l.29-1.26zm-.5 2.18c-.13.07-.27.17-.44.28a3.78 3.78 0 01-1.03.45c-.17.04-.4.06-.71.06-.5 0-.9-.14-1.21-.42a1.37 1.37 0 01-.47-1.08c0-.47.11-.87.34-1.2.21-.32.55-.58.98-.78.41-.18.9-.31 1.46-.4.57-.08 1.18-.13 1.84-.17 0-.02 0-.06.02-.1a.8.8 0 00.01-.17.54.54 0 00-.34-.52c-.24-.1-.58-.16-1.04-.16-.32 0-.66.06-1.04.16l-.86.27h-.17l.28-1.41a13.5 13.5 0 012.42-.3c.93 0 1.61.13 2.04.37.44.24.66.62.66 1.13a3.29 3.29 0 01-.07.58l-.93 4.04H80.3l.14-.63zm14.79-7.25l-.35 1.49h-3.66l-.33 1.4h3.4l-.34 1.5h-3.41l-.46 2h3.67l-.34 1.49h-5.7l1.82-7.88h5.7zm6.72 3.28a3.02 3.02 0 01-.1.73l-.88 3.87h-1.92l.67-2.95.12-.56c.03-.16.04-.3.04-.44 0-.23-.06-.4-.17-.5-.12-.1-.33-.16-.64-.16-.16 0-.33.04-.53.1-.2.07-.41.17-.66.3l-.97 4.21h-1.9l1.36-5.94h1.91l-.15.65c.39-.26.75-.46 1.06-.6.33-.15.68-.22 1.07-.22.53 0 .95.13 1.24.39.3.26.45.63.45 1.12zm5.56.86a1.77 1.77 0 00.03-.34.8.8 0 00-.26-.64c-.17-.15-.42-.22-.75-.22-.39 0-.72.1-.98.32-.27.2-.47.5-.6.88h2.56zm-1.46 3.9a3.6 3.6 0 01-2.34-.68 2.25 2.25 0 01-.82-1.85c0-.55.1-1.04.27-1.49a3.53 3.53 0 012-1.98c.47-.2 1-.3 1.59-.3.88 0 1.55.19 2 .54.45.36.67.9.67 1.6 0 .23-.02.47-.07.7-.05.22-.11.45-.19.68h-4.4v.12c0 .41.14.73.43.97.29.23.73.35 1.33.35.41 0 .8-.07 1.18-.21.37-.15.7-.3.97-.47h.2l-.34 1.52a5.75 5.75 0 01-2.48.5zm9.1-4.29h-.18a4.9 4.9 0 00-1.54-.03c-.23.03-.47.1-.72.18l-.91 3.98h-1.92l1.38-5.94h1.9l-.2.87c.37-.27.73-.48 1.08-.65.36-.17.72-.25 1.08-.25h.23l.22.03-.43 1.81zm7.26-1.81l-1.2 5.25a4.35 4.35 0 01-.56 1.42 2.9 2.9 0 01-.87.89c-.35.23-.73.39-1.14.48-.41.1-.87.14-1.39.14a9.7 9.7 0 01-2.21-.25l.29-1.47h.23c.3.11.59.2.89.27a3.7 3.7 0 001.67.01c.24-.06.44-.15.58-.27.15-.12.27-.27.36-.45.09-.18.16-.4.22-.66l.02-.12c-.27.2-.54.34-.81.45-.28.1-.58.16-.93.16-.66 0-1.18-.16-1.55-.5-.38-.33-.56-.84-.56-1.52 0-1.17.32-2.13.98-2.88a3.08 3.08 0 012.4-1.12c.34 0 .64.04.92.12.28.08.5.18.67.3l.13-.25h1.86zM120.2 77a2.36 2.36 0 00-.85-.2c-.57 0-1.02.22-1.37.65-.34.43-.52.98-.52 1.65 0 .3.08.54.23.7.14.17.41.26.8.26.18 0 .37-.04.56-.1.2-.08.37-.17.55-.27l.6-2.69zm7.44.83l.02-.17.01-.17a.8.8 0 00-.26-.64 1.11 1.11 0 00-.74-.22c-.4 0-.72.1-.99.32-.26.2-.46.5-.6.88h2.56zm-1.45 3.9c-1.01 0-1.8-.23-2.34-.68a2.27 2.27 0 01-.83-1.85c0-.55.1-1.04.27-1.49a3.53 3.53 0 012-1.98c.48-.2 1.01-.3 1.6-.3.88 0 1.55.19 2 .54.44.36.67.9.67 1.6 0 .23-.03.47-.07.7-.05.22-.12.45-.2.68h-4.4v.12c0 .41.15.73.44.97.29.23.73.35 1.32.35.42 0 .81-.07 1.18-.21.37-.15.7-.3.97-.47h.21l-.35 1.52a5.55 5.55 0 01-2.47.5zm3.14-8.93L127 74.8h-1.35l1.65-2.08h2.02v.1zm2.96 8.88c-.65 0-1.12-.1-1.4-.32-.29-.22-.43-.54-.43-.96a8.78 8.78 0 01.1-.7l.64-2.83h-.78l.29-1.24h.78l.4-1.7h1.9l-.39 1.7h1.79l-.3 1.24h-1.78l-.49 2.15-.1.45c-.03.15-.05.28-.05.38 0 .22.06.37.18.44.11.09.3.13.54.13.1 0 .23-.02.4-.06.15-.03.28-.07.37-.12h.16l-.29 1.28a6.65 6.65 0 01-1.54.16zm5.94-6.05l-1.37 5.94h-1.91l1.37-5.94h1.91zm.58-2.3l-.33 1.45h-2.02l.33-1.45h2.02zm2.9 8.4c-.4 0-.79-.05-1.14-.16-.36-.1-.67-.25-.93-.46a2.17 2.17 0 01-.6-.79 2.58 2.58 0 01-.22-1.09c0-.53.1-1.02.3-1.48a3.77 3.77 0 012.17-2 4.66 4.66 0 012.76-.17c.36.08.7.2 1 .36l-.4 1.62h-.27c-.2-.25-.45-.43-.7-.56a2.06 2.06 0 00-.9-.18c-.6 0-1.07.21-1.43.64-.37.42-.55.95-.55 1.59 0 .44.11.77.34.99.22.21.57.33 1.04.33.37 0 .7-.08 1-.23.3-.15.56-.32.77-.5h.27l-.4 1.63a4.62 4.62 0 01-2.12.46zm7.54-2.97l-.95.1c-.3.04-.55.1-.76.17-.22.08-.38.19-.5.33a.87.87 0 00-.16.56c0 .2.08.35.22.44.16.08.37.12.66.12.18 0 .39-.05.6-.13.2-.09.4-.2.6-.33l.29-1.26zm-.5 2.18c-.13.07-.27.17-.44.28a3.52 3.52 0 01-1.03.45c-.17.04-.4.06-.71.06-.5 0-.9-.14-1.2-.42a1.37 1.37 0 01-.48-1.08c0-.47.11-.87.34-1.2.22-.32.55-.58.98-.78.41-.18.9-.31 1.47-.4a20.6 20.6 0 011.83-.17c0-.02 0-.06.02-.1a.8.8 0 00.02-.17.53.53 0 00-.35-.52c-.24-.1-.58-.16-1.04-.16-.31 0-.66.06-1.04.16l-.86.27h-.17l.28-1.41a12.84 12.84 0 012.42-.3c.93 0 1.61.13 2.04.37.44.24.66.62.66 1.13a2.38 2.38 0 01-.07.58l-.93 4.04h-1.89l.15-.63z" fill="#004D71"/>
  </g>
</svg>