<svg width="180" height="106" xmlns="http://www.w3.org/2000/svg">
  <g fill="none" fill-rule="evenodd">
    <path d="M123 60.4l1.6-.4a53 53 0 002.4-.9l.5-.1 1.7-.6.5-.2a3237.3 3237.3 0 003.8-1.4h.4l.2-.2 1.5-.6.6-.3a38.1 38.1 0 003.8-1.6l.3-.2.7-2.5h4.3l.2-.1a501.5 501.5 0 006.6-4c.1-.1 4-3.3 5.1-4.7 1.2-1.4 2.2-3 2.8-4.8l-1.2 1.1-1.6.8c-1.2.5-2.8.7-4.6.7h-9.2l2.5-11h8.7c1 0 1.9 0 2.6.2v-3.4c-.7-.9-1.7-1.8-2.7-2.7l-.1-.1a31.4 31.4 0 00-1.8-1.4l-.8-.6-.9-.6a38.6 38.6 0 00-1.1-.7l-.4-.2c-1.5-1-3.1-1.8-5-2.8h-13.7l-10 44h.4l1.3-.5.6-.2zm-66.2 9.3C61 66 64.9 60.4 67 55.1l-18.2-1.4a18.4 18.4 0 01-4.7 7.3 9.3 9.3 0 01-6.4 2.5c-2.5 0-4.4-.8-5.7-2.4-1.2-1.5-1.7-3.7-1.5-6.7a42.2 42.2 0 016.7-20.3c1-1.6 2.4-2.9 3.7-3.8a8.8 8.8 0 014.5-1.2c2.6 0 4.4.8 5.6 2.6 1.2 1.7 1.7 4.2 1.5 7.5l-.1 1.3 18.5-.6c.4-7.4-1-13.6-5.2-17.9-4.2-4.2-10.6-6-18.2-6a34.6 34.6 0 00-28.1 13.1 38.7 38.7 0 00-8.6 21.7 25.1 25.1 0 005.5 18.6c12.5.6 26.3.8 40.4.3zm-38.9 1.4a25.3 25.3 0 0018.2 6.5 30 30 0 0016.7-4.8c-14.4 0-26.1-.8-34.9-1.7zm48.4 1.4l-1 4h49l2-9a346.6 346.6 0 01-50 5zm21-9.9l2.6-10.3h24.6l2.5-12.8H92.3L95 31h29.7l3.2-13.9H79.3L67 69.3c16.5-1 33-3 47.9-6.7H87.3zm87.4-41.8a31.5 31.5 0 00-17-3.7h-3.4l3 1.9a33 33 0 019.7 9.9l.1.3.2.3c0 .2.1.3.2.3v.2l.1.2.1.1.1.3.1.3.2.4v.3l.1.1V32l.2.3v.4l.1.3v.4l.1.3v.4h.1V38l-.1.2v.4h-.1v.5l-.1.2v.2h-.1v.4l-.2.2v.4h-.1v.7h-.1v.2l-.1.3-.1.1v.2l-.1.1v.2l-.2.1V42.7l-.2.4-.1.6s0-.3-.1-.2l-.1.2c-.2.3.2 0 0 .3l-.1.3-.1.1-.4.6c0 .2-.2.3-.3.5l-.4.5h-.4c4.4-.6 7.9-2.1 10.5-4.6 2.7-2.6 4.1-5.8 4.3-9.6v-1c-.1-4.4-1.9-7.8-5.3-10zm-9.4 25.6l-1.8 2.3h-.1l-1.2 1.3v.1l.3-.4-.2.2-.2.2-.1.2c-.2 0-.2.2-.4.3l-.5.5-.1.1-.6.5-.6.5c-.1 0-.2 0-.3.2l-.2.1h-.1a5 5 0 01-.2.2l-.2.2h-.1l-.4.3c-.2 0-.3.2-.4.3h-.2l-.2.2-.4 1.1a6.4 6.4 0 010 5.2c-.5 1-1.2 1.7-2.2 2.3a13.4 13.4 0 01-7.2 1.6h-9.8l.5-2-3.5 1.2-.7.2a52.3 52.3 0 01-2.8.8 130.2 130.2 0 01-2 .5l-3 .8h-.2-.1l-1 .3h-.3l-.1.1h-.2l-.4.1-.5.1h-.1-.1l-.7.2h-.1-.2a53.2 53.2 0 01-.3.2h-.2a355.9 355.9 0 01-2 .4h-.3l-.4.2-2.3 9.5h34.6c2 0 3.8 0 5.6-.3 4.8-.6 8.9-2 12-4 4.3-3 6.6-7.1 6.7-12.2.2-3.5-.8-6.4-2.7-8.8-2-2.3-4.2-4-7.7-5l-.1.2z" fill="#003E6A"/>
    <path d="M0 68.7s25 6.2 69 5c43.9-1.2 65.4-8.3 65.4-8.3s19-5.6 25.6-12c4.3-4 7.4-8.5 8.1-13.2-1 3.7-3.5 7.1-6.7 10.3C154.7 57 135 63 135 63s-20.8 7.4-65 9.3a312.4 312.4 0 01-68-3.4L0 68.7M78.8.8C65.7-.4 51.1 0 35.7.8 49 .6 62.1 1 75 2.4c0 0 47.9 4.4 71.4 17.9 10.3 5.8 13.9 11.4 14 16.2 1.4-5.4-1.4-12.2-14.1-19.2C126.3 7.2 91.2 2.1 78.8.8" fill="#E87B14"/>
    <path d="M12.4 90.2h5.5c2.2 0 5 1.4 4.7 5.3-.2 4-2.7 6.7-6.8 6.7h-6l2.6-12zm155.9-.3c3.4 0 5.4 1.6 5.4 5.3 0 4-2.6 7.3-6.7 7.3-3.4 0-5.4-1.8-5.4-5.3 0-4 2.6-7.3 6.7-7.3zm-17.2.3h3.7l1.8 12H153l-.2-1.7h-4l-.8 1.7h-3.8l7-12zm5.3-3.2c-.1 1.5-.9 2.4-2 2.4-.6 0-1-.1-1.4-.3-.4-.2-.7-.4-1-.4-.4 0-.7.4-.8.8H150c0-1.2.8-2.4 2-2.4.6 0 1 .2 1.4.3l1 .4c.5 0 .7-.4.8-.8h1.3zm-65.3 3.2h6.1c2.6 0 3.6 1 3.6 2.6s-.8 2.5-2.2 3c1 .2 1.8 1.3 1.8 2.4 0 2.8-2.3 4-5 4h-6.8l2.5-12zm1.7 9.1H95c.7 0 1.6-.2 1.6-1.2 0-.9-.7-1-1.4-1h-2l-.5 2.2zm-26.4-9h6c2.3 0 4 .5 4 3 0 1.8-1.1 3-2.8 3.4 1 .3 1.2 1.3 1.2 2.4 0 1.2-.1 2.4.2 3h-3.6l-.1-1 .2-2c0-.6-.5-1-1.5-1h-1.6l-.9 4H64l2.5-11.9zM14.2 99H16c2.4 0 3-2.5 3-3.6 0-1.8-1-2.2-2.2-2.2h-1.4L14.2 99zm153 .4c2.1 0 2.8-2.6 2.8-4.4 0-1.1-.4-2.2-1.8-2.2-2.2 0-3 2.6-3 4.4 0 1.1.5 2.2 2 2.2zm-17-1.6h2.3l-.4-3.6-1.9 3.6zm-8.8-.3c-.3 1.3-1.2 4.8-6 4.9l-.6.7h.6c1.3 0 1.4.9 1.4 1.2 0 .7-.5 1.5-2.1 1.5-.9 0-1.6-.2-2.2-.5l.4-.8c.4.2 1 .4 1.4.4.3 0 .8-.1.8-.5 0-.6-.5-.6-.7-.6-.2 0-.3 0-.5.2l-.4-.5.9-1.2c-3-.3-4.3-2.5-4.3-5.4 0-3.9 2.4-7 6.5-7 2.6 0 5 1 5 4.7h-3.4c0-1.1-.5-1.8-1.6-1.8-2 0-2.8 2.4-2.8 4 0 1 .2 2.6 2 2.6 1 0 1.7-.8 2-1.9h3.6zm-18.5-7.4h3.6l-2.4 12h-3.7l2.5-12zm-7 8c-.6 3-2.8 4.3-5.8 4.3-3.6 0-5-1.8-5-3.7v-1l1.7-7.6h3.6l-1.3 6.6-.2 1.1c0 .4-.1 1.6 1.4 1.6s2-1.4 2.2-2.7l1.4-6.6h3.7l-1.6 8zm-22.2-3.3h2c.6 0 1.4-.2 1.4-1 0-.7-.5-.8-1.2-.8h-1.8l-.4 1.8zM82 90.2h3.7l-2.5 12h-3.6l2.4-12zM69 95.4h2c1.2 0 1.8-.6 1.8-1.3 0-.5-.3-1-1.3-1h-2l-.5 2.3zm-14.8-2.1h-3.3l.6-3h10.3l-.6 3h-3.3l-1.9 8.9h-3.7l1.9-9zm-11.1.5c0-.5-.2-.8-.5-1-.2-.2-.6-.2-1-.2-.6 0-1.4.2-1.4 1 0 .9 1.7 1 3 1.3 2 .8 2.7 1.9 2.7 3.3 0 3-2.8 4.3-5.4 4.3-2.7 0-5.2-1.3-5-4.3h3.5c0 .6.2 1 .5 1.3.3.3.7.3 1.3.3.7 0 1.6-.3 1.6-1.1 0-1-1.2-1-2.9-1.6-1.4-.5-2.8-1.2-2.8-3.2 0-2.7 2.6-4 5-4 2.5 0 4.8 1 4.8 4H43zm-14.2-3.6h3.7l-2.5 12h-3.7l2.5-12z" fill="#003E6A"/>
  </g>
</svg>
